<svg width="current" height="current" viewBox="0 0 1131 442" fill="none" xmlns="http://www.w3.org/2000/svg">
<rect x="1.72656" y="440.273" width="438.547" height="1127.45" transform="rotate(-90 1.72656 440.273)" fill="#2D2F3A" stroke="#484C59" stroke-width="3.45312"/>
<path d="M835.656 438.547L933.207 348.766L1030.76 438.547L835.656 438.547Z" fill="#343744"/>
<path d="M835.656 3.45312L933.207 93.2344L1030.76 3.45313L835.656 3.45312Z" fill="#343744"/>
<path d="M925.438 333.227L925.438 112.227" stroke="#343744" stroke-width="1.72656"/>
<path d="M925.438 344.277L925.438 101.177" stroke="#343744" stroke-width="1.89922"/>
<path d="M904.719 356.434L904.719 89.0225" stroke="#343744" stroke-width="2.08915"/>
<path d="M887.453 369.805L887.453 75.6521" stroke="#343744" stroke-width="2.29807"/>
<path d="M870.188 384.511L870.188 60.9426" stroke="#343744" stroke-width="2.52788"/>
<path d="M852.922 400.691L852.922 44.7652" stroke="#343744" stroke-width="2.78067"/>
<path d="M835.656 418.486L835.656 26.9684" stroke="#343744" stroke-width="3.05873"/>
<rect x="252.078" y="265.891" width="88.0547" height="440.273" rx="44.0273" transform="rotate(-90 252.078 265.891)" fill="#343744"/>
<rect x="262.438" y="424.734" width="69.0625" height="15.9375" transform="rotate(-90 262.438 424.734)" fill="#343744"/>
<rect x="658.219" y="17.2656" width="69.0625" height="15.9375" transform="rotate(90 658.219 17.2656)" fill="#343744"/>
<rect x="278.375" y="424.734" width="15.9375" height="103.594" transform="rotate(-90 278.375 424.734)" fill="#343744"/>
<rect x="642.281" y="17.2656" width="15.9375" height="103.594" transform="rotate(90 642.281 17.2656)" fill="#343744"/>
<rect x="82.875" y="424.734" width="69.0625" height="15.9375" transform="rotate(-90 82.875 424.734)" fill="#343744"/>
<rect x="82.875" y="355.274" width="69.0625" height="15.9375" fill="#343744"/>
<rect x="94.9609" y="424.734" width="15.5391" height="148.484" transform="rotate(-90 94.9609 424.734)" fill="#343744"/>
<rect width="69.0625" height="15.9375" transform="matrix(-1.19249e-08 1 1 1.19249e-08 82.875 16.8683)" fill="#343744"/>
<rect width="69.0625" height="15.9375" transform="matrix(1 -3.17865e-08 -3.17865e-08 -1 82.875 86.3287)" fill="#343744"/>
<rect width="15.5391" height="148.484" transform="matrix(-1.19249e-08 1 1 1.19249e-08 94.9609 16.8683)" fill="#343744"/>
<rect x="400.562" y="424.734" width="69.0625" height="15.9375" transform="rotate(-90 400.562 424.734)" fill="#343744"/>
<rect x="416.5" y="424.734" width="15.9375" height="103.594" transform="rotate(-90 416.5 424.734)" fill="#343744"/>
<rect x="520.094" y="17.2656" width="69.0625" height="15.9375" transform="rotate(90 520.094 17.2656)" fill="#343744"/>
<rect x="504.156" y="17.2656" width="15.9375" height="103.594" transform="rotate(90 504.156 17.2656)" fill="#343744"/>
<rect x="538.688" y="424.734" width="69.0625" height="15.9375" transform="rotate(-90 538.688 424.734)" fill="#343744"/>
<rect x="554.625" y="424.734" width="15.9375" height="103.594" transform="rotate(-90 554.625 424.734)" fill="#343744"/>
<rect x="381.969" y="17.2656" width="69.0625" height="15.9375" transform="rotate(90 381.969 17.2656)" fill="#343744"/>
<rect x="366.031" y="17.2656" width="15.9375" height="103.594" transform="rotate(90 366.031 17.2656)" fill="#343744"/>
</svg>
